#!OML:ASF E:\motion texture\Top Level 1\Subject 1\Session 1\male.ASF
:FULLY-SPECIFIED
:DEGREES
487
root 0.316441 17.9617 4.46763 302.021 -102.347 -300.213
lowerback 2.50272 1.50427 7.82303
upperback -1.42974 2.26414 4.68472
thorax -2.77466 0.957589 0.366409
lowerneck -20.4752 -4.18671 -5.48199
upperneck 16.9034 -5.4965 6.27182
head 9.00208 -2.27057 2.28897
rclavicle -9.8212e-015 4.13472e-014
rhumerus 8.14943 30.0687 -86.9583
rradius 73.4091
rwrist -9.81259
rhand -16.9421 -9.6622
rfingers 7.12502
rthumb 9.2912 -39.4375
lclavicle -9.8212e-015 4.13472e-014
lhumerus -54.4188 -15.7063 91.7471
lradius 41.3627
lwrist -1.11198
lhand -11.644 4.28405
lfingers 7.12502
lthumb 14.4 33.7645
rfemur -12.9357 4.39736 37.8586
rtibia 25.0119
rfoot -187.882 176.914
rtoes 21.2171
lfemur -54.91 10.983 -6.77757
ltibia 63.9125
lfoot 541.374 -352.595
ltoes -4.44276
488
root 0.177303 17.9929 4.45687 302.948 -102.679 -301.383
lowerback 2.7564 1.76149 8.08655
upperback -1.31936 2.6373 4.58176
thorax -2.76851 1.14014 0.0927306
lowerneck -20.4285 -4.3718 -5.60172
upperneck 16.7894 -5.76134 6.49584
head 8.98313 -2.38023 2.34772
rclavicle 1.87603e-015 -2.82274e-014
rhumerus 10.1987 29.886 -85.932
rradius 73.8076
rwrist -10.0675
rhand -16.8888 -9.50066
rfingers 7.12502
rthumb 9.34268 -39.2736
lclavicle 1.87603e-015 -2.82274e-014
lhumerus -55.9844 -15.6001 90.9944
lradius 42.4712
lwrist -0.493918
lhand -11.6099 4.16246
lfingers 7.12502
lthumb 14.4329 33.6406
rfemur -11.861 4.4399 38.1088
rtibia 24.525
rfoot -187.938 177.03
rtoes 21.3159
lfemur -57.8812 11.3846 -7.10046
ltibia 61.6281
lfoot 540.798 -352.256
ltoes -4.20183
489
root 0.03721 18.0213 4.44677 303.637 -102.994 -302.307
lowerback 3.00145 1.99778 8.34143
upperback -1.231 2.98358 4.49554
thorax -2.7786 1.30848 -0.158605
lowerneck -20.3362 -4.55547 -5.72308
upperneck 16.6722 -6.01786 6.6842
head 8.95432 -2.49118 2.39608
rclavicle -2.30124e-014 -2.34566e-014
rhumerus 12.1387 29.6786 -84.8778
rradius 74.1245
rwrist -10.2958
rhand -16.8475 -9.37622
rfingers 7.12502
rthumb 9.38249 -39.1474
lclavicle -2.30124e-014 -2.34566e-014
lhumerus -57.4885 -15.484 90.2111
lradius 43.5122
lwrist 0.0907238
lhand -11.5988 4.02339
lfingers 7.12502
lthumb 14.4436 33.5008
rfemur -10.8282 4.45263 38.3557
rtibia 24.0826
rfoot -187.998 177.1
rtoes 21.4097
lfemur -60.789 11.6805 -7.42753
ltibia 59.5618
lfoot 540.233 -352.006
ltoes -4.11801
490
root -0.103903 18.0471 4.43714 304.067 -103.277 -302.953
lowerback 3.22438 2.21 8.58526
upperback -1.16289 3.29701 4.42447
thorax -2.79689 1.45993 -0.387064
lowerneck -20.233 -4.73048 -5.843
upperneck 16.5793 -6.2575 6.83847
head 8.93031 -2.59802 2.4351
rclavicle -2.79541e-017 -5.80451e-014
rhumerus 13.977 29.4499 -83.799
rradius 74.3572
rwrist -10.4938
rhand -16.8167 -9.27458
rfingers 7.12502
rthumb 9.41222 -39.0444
lclavicle -2.79541e-017 -5.80451e-014
lhumerus -58.9204 -15.381 89.4183
lradius 44.4607
lwrist 0.61594
lhand -11.598 3.88597
lfingers 7.12502
lthumb 14.4444 33.3633
rfemur -9.84565 4.42299 38.5949
rtibia 23.6765
rfoot -188.057 177.124
rtoes 21.4916
lfemur -63.6402 11.8581 -7.75466
ltibia 57.7086
lfoot 539.681 -351.838
ltoes -4.21637
491
root -0.245966 18.0706 4.42796 304.249 -103.525 -303.324
lowerback 3.41311 2.39716 8.81452
upperback -1.11118 3.57415 4.37122
thorax -2.81416 1.59318 -0.586995
lowerneck -20.1274 -4.89589 -5.9665
upperneck 16.5077 -6.47778 6.96278
head 8.91146 -2.69917 2.46731
rclavicle -2.12606e-014 -4.11484e-014
rhumerus 15.7238 29.2081 -82.6952
rradius 74.5078
rwrist -10.6567
rhand -16.788 -9.19821
rfingers 7.12502
rthumb 9.43993 -38.9668
lclavicle -2.12606e-014 -4.11484e-014
lhumerus -60.2675 -15.2965 88.6373
lradius 45.3022
lwrist 1.09734
lhand -11.5636 3.78426
lfingers 7.12502
lthumb 14.4775 33.2592
rfemur -8.92038 4.34278 38.8231
rtibia 23.3055
rfoot -188.115 177.115
rtoes 21.5434
lfemur -66.4364 11.9151 -8.07492
ltibia 56.0583
lfoot 539.183 -351.734
ltoes -4.36277
